<?xml version="1.0" encoding="utf-8"?>
<svg viewBox="0 0 500 500" xmlns="http://www.w3.org/2000/svg">
  <path fill-rule="evenodd" clip-rule="evenodd" d="M 315.314 121.584 C 342.84 121.584 365.807 141.571 371.118 168.142 C 371.876 171.939 372.275 175.87 372.275 179.895 L 372.275 329.172 C 372.275 361.376 346.773 387.483 315.314 387.483 L 169.495 387.483 C 163.268 387.483 157.274 386.459 151.664 384.57 C 128.939 376.908 112.534 355.001 112.534 329.172 L 112.534 179.895 C 112.534 147.691 138.037 121.584 169.495 121.584 L 315.314 121.584 Z M 292.211 140.244 L 315.314 140.244 C 334.191 140.244 349.915 154.068 353.35 172.366 C 342.389 173.637 329.858 172.46 316.624 166.654 C 304.9 161.509 297.121 151.978 292.211 140.244 Z M 238.128 140.244 L 272.749 140.244 C 278.502 157.968 289.52 175.063 309.445 183.805 C 325.428 190.816 340.607 192.444 354.048 191.077 L 354.048 210.143 C 335.8 216.058 317.616 218.451 303.066 214.091 C 295.838 211.925 287.545 206.175 278.62 197.132 C 269.819 188.211 261.035 176.737 252.742 164.198 C 247.588 156.403 242.68 148.286 238.128 140.244 Z M 217.196 140.244 L 193.077 140.244 C 194.175 161.357 189.315 187.149 171.238 213.277 C 159.26 230.586 145.095 240.107 130.762 244.36 L 130.762 281.56 C 139.399 276.19 149.568 268.857 161.47 258.956 C 189.598 235.559 211.751 226.25 228.55 224.548 C 245.25 222.857 257.123 228.786 262.352 236.282 C 267.843 244.152 270.947 254.697 272.115 265.818 C 273.298 277.074 272.578 289.63 269.803 302.09 C 264.291 326.86 250.295 352.643 225.082 366.542 C 223.708 367.3 222.323 368.061 220.928 368.823 L 249.258 368.823 C 260.338 354.423 269.206 340.116 272.387 328.904 C 275.975 316.246 277.449 302.827 278.825 290.283 L 278.828 290.281 L 278.828 290.276 C 279.322 285.772 279.805 281.378 280.368 277.172 C 281.345 269.886 282.694 262.165 285.59 256.598 C 287.123 253.652 289.559 250.373 293.478 248.479 C 297.604 246.484 301.899 246.729 305.665 248.014 C 316.223 251.618 330.259 252.364 354.048 246.263 L 354.048 229.618 C 335.702 234.911 315.699 237.318 297.944 232 C 286.488 228.567 275.613 220.34 265.797 210.392 C 255.859 200.321 246.33 187.784 237.65 174.659 C 230.224 163.431 223.311 151.608 217.196 140.244 Z M 354.048 265.454 C 331.384 270.765 315.087 270.544 301.302 266.177 C 300.284 268.619 299.333 272.948 298.427 279.71 C 297.976 283.069 297.559 286.887 297.105 291.015 L 297.105 291.018 C 295.697 303.884 293.959 319.761 289.889 334.105 C 286.773 345.1 280.028 357.18 272.013 368.823 L 290.35 368.823 C 293.733 360.212 296.848 352.011 299.295 345.119 C 301.924 337.711 303.569 332.384 304.1 329.673 C 305.105 324.526 307.021 318.986 311.516 315.061 C 316.192 310.974 321.933 310.097 327.313 310.377 C 332.61 310.655 338.821 312.115 345.827 314.172 C 348.374 314.918 351.113 315.772 354.048 316.721 L 354.048 265.454 Z M 353.455 336.12 C 348.698 334.539 344.51 333.198 340.801 332.108 C 334.032 330.119 329.491 329.174 326.388 329.013 C 324.382 328.908 323.571 329.163 323.339 329.268 C 323.207 329.426 322.56 330.329 321.974 333.333 C 321.136 337.62 319.015 344.198 316.426 351.491 C 314.569 356.725 312.362 362.626 309.971 368.823 L 315.314 368.823 C 334.392 368.823 350.247 354.705 353.455 336.12 Z M 181.598 368.823 C 193.535 362.521 205.583 356.098 216.44 350.113 C 235.656 339.521 247.292 319.24 252.031 297.945 C 254.385 287.372 254.945 276.892 253.993 267.815 C 253.024 258.599 250.575 251.506 247.52 247.128 C 247.055 246.461 242.409 241.896 230.345 243.119 C 218.379 244.332 199.52 251.35 172.965 273.438 C 156.342 287.265 142.432 296.737 130.762 303 L 130.762 324.043 C 133.639 321.349 136.886 319.098 139.889 317.178 C 142.947 315.222 146.278 313.297 149.552 311.417 L 150.365 310.951 C 153.423 309.197 156.46 307.455 159.474 305.607 C 166.068 301.563 171.999 297.339 176.558 292.424 C 184.453 283.915 195.85 273.762 206.563 266.83 C 211.846 263.409 217.554 260.383 222.94 258.996 C 227.994 257.692 235.829 257.162 241.291 263.553 C 246.488 269.634 248.641 278.754 244.856 290.591 C 241.261 301.836 232.232 316.031 214.779 334.495 C 196.663 353.658 178.545 363.258 163.27 366.318 C 161.548 366.664 159.853 366.925 158.194 367.109 C 161.769 368.224 165.565 368.823 169.495 368.823 L 181.598 368.823 Z M 130.762 224.615 C 139.593 220.867 148.392 214.012 156.362 202.49 C 172.104 179.744 175.907 157.686 174.824 140.244 L 169.495 140.244 C 148.105 140.244 130.762 157.996 130.762 179.895 L 130.762 224.615 Z M 323.321 329.277 C 323.277 329.298 323.259 329.312 323.262 329.312 C 323.264 329.314 323.273 329.31 323.289 329.298 L 323.3 329.291 L 323.321 329.277 Z M 216.301 282.602 C 207.121 288.541 196.87 297.628 189.775 305.276 C 183.514 312.024 175.916 317.276 168.839 321.615 C 165.588 323.607 162.327 325.477 159.306 327.213 L 158.467 327.693 C 155.157 329.594 152.188 331.313 149.55 333.002 C 143.86 336.64 141.482 339.089 140.737 340.655 C 140.523 341.105 140.497 341.361 140.564 341.753 C 140.657 342.313 141.049 343.603 142.61 345.732 L 142.762 345.94 L 142.901 346.154 C 142.91 346.166 143.115 346.458 143.767 346.866 C 144.441 347.288 145.485 347.764 146.966 348.137 C 149.942 348.888 154.275 349.105 159.771 348.004 C 170.7 345.816 185.619 338.506 201.68 321.517 C 218.404 303.828 225.205 292.063 227.533 284.788 C 228.919 280.454 228.634 278.108 228.192 276.909 C 227.969 276.951 227.704 277.009 227.392 277.091 C 224.761 277.769 220.962 279.586 216.301 282.602 Z M 229.172 276.82 C 229.167 276.827 229.112 276.827 229.021 276.809 C 229.128 276.806 229.176 276.816 229.172 276.82 Z" style="fill: rgb(24, 144, 255);"/>
  <text style="white-space: pre; fill: rgb(51, 51, 51); font-family: Arial, sans-serif; font-size: 23.9px;" x="343.445" y="272.323"> </text>
  <text style="white-space: pre; fill: rgb(51, 51, 51); font-family: Arial, sans-serif; font-size: 23.9px;" x="407.078" y="238.112"> </text>
  <text style="white-space: pre; fill: rgb(51, 51, 51); font-family: Arial, sans-serif; font-size: 23.9px;" x="113.544" y="40.369"> </text>
</svg>