<?xml version="1.0" standalone="no"?>
<!DOCTYPE svg PUBLIC "-//W3C//DTD SVG 20010904//EN"
 "http://www.w3.org/TR/2001/REC-SVG-20010904/DTD/svg10.dtd">
<svg version="1.0" xmlns="http://www.w3.org/2000/svg"
 width="700.000000pt" height="700.000000pt" viewBox="0 0 700.000000 700.000000"
 preserveAspectRatio="xMidYMid meet">
<metadata>
Created by potrace 1.14, written by Peter Selinger 2001-2017
</metadata>
<g transform="translate(0.000000,700.000000) scale(0.100000,-0.100000)"
fill="#000000" stroke="none">
<path d="M2263 5290 c-254 -37 -476 -198 -597 -435 -42 -82 -64 -151 -80 -255
-13 -84 -15 -2249 -2 -2330 37 -232 174 -446 361 -565 102 -66 188 -99 315
-121 55 -10 2176 -12 2245 -3 28 4 65 10 84 13 61 12 185 65 250 108 58 38
162 132 202 184 35 45 89 143 114 204 55 141 54 99 52 1370 l-2 1175 -22 70
c-90 282 -290 483 -565 567 l-73 22 -1115 2 c-613 1 -1138 -2 -1167 -6z m184
-369 c-4 -64 -9 -133 -12 -155 -42 -289 -230 -640 -430 -803 -47 -38 -153
-103 -169 -103 -11 0 -6 680 6 733 34 159 141 304 278 379 82 44 158 62 274
64 l59 1 -6 -116z m608 89 c173 -314 414 -677 554 -835 49 -54 199 -204 238
-238 106 -89 242 -163 354 -192 99 -26 138 -30 284 -30 156 1 196 5 352 41 59
13 110 24 113 24 3 0 6 -51 6 -114 l0 -114 -75 -17 c-226 -50 -429 -56 -571
-17 -92 26 -143 27 -196 3 -113 -51 -160 -168 -199 -491 -3 -25 -7 -61 -10
-80 -2 -19 -7 -60 -10 -90 -44 -398 -103 -582 -266 -828 -106 -158 -132 -191
-154 -193 -21 -1 -326 -1 -360 0 -13 1 2 13 39 32 33 17 64 35 70 40 6 5 45
35 86 67 298 234 494 665 504 1113 8 357 -99 631 -279 713 -93 43 -128 50
-245 50 -138 0 -187 -7 -304 -45 -233 -76 -416 -188 -764 -465 -145 -116 -280
-216 -359 -265 l-33 -21 0 260 0 260 38 13 c349 113 671 519 791 997 30 119
41 204 46 353 2 52 3 94 4 95 1 0 76 0 167 0 l165 -1 14 -25z m775 -9 c69
-196 209 -391 350 -488 174 -119 419 -191 650 -192 58 0 110 0 116 -1 11 0 15
-253 4 -264 -8 -7 -187 -53 -236 -60 -22 -4 -51 -9 -64 -12 -14 -3 -78 -7
-143 -8 -142 -4 -246 13 -331 55 -182 89 -399 315 -625 653 -83 123 -211 337
-207 345 3 4 110 7 239 7 l234 0 13 -35z m731 16 c123 -40 227 -116 293 -215
49 -74 86 -159 86 -197 l0 -25 -117 4 c-133 5 -158 8 -246 32 -72 20 -216 84
-255 114 -91 71 -175 179 -219 281 l-11 27 211 -3 c153 -3 225 -8 258 -18z
m-1171 -1435 c25 -8 53 -22 63 -30 37 -33 88 -172 102 -282 10 -85 5 -278 -10
-355 -18 -95 -27 -131 -50 -205 -58 -182 -154 -347 -272 -462 -95 -94 -142
-125 -453 -290 -47 -25 -116 -63 -155 -84 l-70 -38 -120 2 c-66 0 -129 3 -140
6 -11 2 -26 5 -34 5 -30 2 2 15 91 37 288 73 596 312 879 683 245 321 298 578
153 740 -48 53 -89 72 -157 74 -139 2 -243 -51 -526 -268 -14 -11 -83 -76
-154 -144 -158 -154 -197 -184 -419 -316 -97 -58 -196 -120 -220 -138 -24 -18
-49 -36 -55 -41 -10 -6 -13 24 -13 137 l0 143 116 70 c95 57 406 279 424 302
6 9 143 119 190 153 185 135 348 227 487 274 127 44 261 54 343 27z m1566
-657 c0 -195 -3 -355 -8 -355 -5 0 -34 9 -66 19 -132 43 -233 63 -333 63 -61
0 -84 -4 -125 -25 -91 -46 -129 -99 -164 -233 -11 -44 -30 -106 -41 -139 -12
-33 -22 -64 -24 -70 -1 -5 -5 -17 -8 -25 -4 -8 -20 -51 -36 -95 -66 -183 -84
-225 -95 -226 -31 -3 -246 -4 -246 -1 0 2 17 29 39 60 118 175 203 367 237
537 13 64 35 186 39 220 3 22 7 54 10 70 5 29 8 59 21 170 3 28 7 61 9 75 2
14 6 52 10 85 8 80 33 197 43 207 5 5 46 0 93 -11 70 -16 111 -19 249 -16 170
3 210 7 301 30 106 25 95 65 95 -340z m-1762 144 c-7 -198 -418 -680 -729
-854 -60 -34 -181 -79 -240 -89 -139 -26 -255 16 -255 92 0 37 109 118 310
230 161 89 274 176 428 329 64 63 164 151 222 194 104 79 234 153 254 146 6
-2 10 -24 10 -48z m1629 -735 c67 -20 123 -38 124 -38 7 -5 -36 -128 -59 -172
-35 -68 -120 -159 -186 -201 -98 -63 -232 -95 -349 -84 -12 1 -8 20 16 76 5
11 14 36 21 55 7 19 16 44 21 55 15 33 89 265 89 278 0 7 5 29 10 49 8 26 17
38 33 40 34 6 146 -18 280 -58z"/>
</g>
</svg>
