<?xml version="1.0" encoding="utf-8"?>
<svg viewBox="0 0 500 500" xmlns="http://www.w3.org/2000/svg">
  <path d="M 228.873 32.093 C 143.352 32.093 74.318 106.553 74.318 198.794 C 74.318 309.929 228.873 476.631 228.873 476.631 C 228.873 476.631 383.431 309.929 383.431 198.794 C 383.431 106.553 314.395 32.093 228.873 32.093 Z M 228.873 87.659 C 286.06 87.659 331.912 137.67 331.912 198.794 C 331.912 260.474 286.06 309.929 228.873 309.929 C 172.203 309.929 125.837 260.474 125.837 198.794 C 125.837 137.67 172.203 87.659 228.873 87.659 Z" style="fill: rgb(24, 144, 255);"/>
  <path id="path4" d="M 230.242 130.602 C 211.699 130.602 165.343 133.063 169.977 137.984 L 225.608 199.499 L 225.608 238.869 C 225.608 248.71 197.793 243.789 197.793 258.553 L 262.694 258.553 C 262.694 243.789 234.879 248.71 234.879 238.869 L 234.879 199.499 L 290.508 137.984 C 295.144 133.063 248.785 130.602 230.242 130.602 Z M 230.242 140.445 C 253.422 140.445 274.284 142.906 274.284 142.906 L 267.33 150.288 L 193.156 150.288 L 186.203 142.906 C 186.203 142.906 207.065 140.445 230.242 140.445 Z" style="fill: rgb(24, 144, 255);"/>
</svg>