<?xml version="1.0" encoding="utf-8"?>
<svg viewBox="0 0 500 500" xmlns="http://www.w3.org/2000/svg">
  <path d="M 228.873 32.093 C 143.352 32.093 74.318 106.553 74.318 198.794 C 74.318 309.929 228.873 476.631 228.873 476.631 C 228.873 476.631 383.431 309.929 383.431 198.794 C 383.431 106.553 314.395 32.093 228.873 32.093 Z M 228.873 87.659 C 286.06 87.659 331.912 137.67 331.912 198.794 C 331.912 260.474 286.06 309.929 228.873 309.929 C 172.203 309.929 125.837 260.474 125.837 198.794 C 125.837 137.67 172.203 87.659 228.873 87.659 Z" style="fill: rgb(250, 173, 20);"/>
  <g transform="matrix(0.321265, 0, 0, 0.366909, 157.413454, 123.117571)" style="">
    <g>
      <path d="M162.562,420.75c10.566,0,19.125-8.559,19.125-19.125V177.528l28.688-14.965v-19.125v-38.25V9.562 c0-5.288-4.274-9.562-9.562-9.562s-9.562,4.274-9.562,9.562v95.625h-9.562V9.562c0-5.288-4.274-9.562-9.562-9.562 s-9.562,4.274-9.562,9.562v95.625H153V9.562C153,4.274,148.726,0,143.438,0s-9.562,4.274-9.562,9.562v95.625h-9.562V9.562 c0-5.288-4.274-9.562-9.562-9.562s-9.562,4.274-9.562,9.562v95.625V153v7.966l38.25,20.722v219.938 C143.438,412.191,151.996,420.75,162.562,420.75z" style="fill: rgb(250, 173, 20);"/>
      <path d="M315.562,439.875c10.566,0,19.125-8.559,19.125-19.125V239.062v-28.688V31.479C334.688,14.095,320.593,0,303.208,0h-3.988 c-17.375,0-31.47,14.095-31.47,31.479v207.583h28.688V420.75C296.438,431.316,304.996,439.875,315.562,439.875z" style="fill: rgb(250, 173, 20);"/>
    </g>
  </g>
  <g transform="matrix(0.321265, 0, 0, 0.366909, 157.413454, 123.117571)" style=""/>
  <g transform="matrix(0.321265, 0, 0, 0.366909, 157.413454, 123.117571)" style=""/>
  <g transform="matrix(0.321265, 0, 0, 0.366909, 157.413454, 123.117571)" style=""/>
  <g transform="matrix(0.321265, 0, 0, 0.366909, 157.413454, 123.117571)" style=""/>
  <g transform="matrix(0.321265, 0, 0, 0.366909, 157.413454, 123.117571)" style=""/>
  <g transform="matrix(0.321265, 0, 0, 0.366909, 157.413454, 123.117571)" style=""/>
  <g transform="matrix(0.321265, 0, 0, 0.366909, 157.413454, 123.117571)" style=""/>
  <g transform="matrix(0.321265, 0, 0, 0.366909, 157.413454, 123.117571)" style=""/>
  <g transform="matrix(0.321265, 0, 0, 0.366909, 157.413454, 123.117571)" style=""/>
  <g transform="matrix(0.321265, 0, 0, 0.366909, 157.413454, 123.117571)" style=""/>
  <g transform="matrix(0.321265, 0, 0, 0.366909, 157.413454, 123.117571)" style=""/>
  <g transform="matrix(0.321265, 0, 0, 0.366909, 157.413454, 123.117571)" style=""/>
  <g transform="matrix(0.321265, 0, 0, 0.366909, 157.413454, 123.117571)" style=""/>
  <g transform="matrix(0.321265, 0, 0, 0.366909, 157.413454, 123.117571)" style=""/>
  <g transform="matrix(0.321265, 0, 0, 0.366909, 157.413454, 123.117571)" style=""/>
</svg>